<?xml version="1.0" standalone="no"?>
<!DOCTYPE svg PUBLIC "-//W3C//DTD SVG 20010904//EN"
 "http://www.w3.org/TR/2001/REC-SVG-20010904/DTD/svg10.dtd">
<svg xmlns="http://www.w3.org/2000/svg" width="512" height="512" viewBox="0 0 512 512" preserveAspectRatio="xMidYMid meet">
  <!-- Your SVG content goes here -->
<path d="M31.5 75.4c-0.2 0.5-0.6 0.9-1.1 1l-2.6 0.4c-0.6 0.1-1.1 0.6-1.1 1.3l0 1.7 0 1.7c0 0.7 0.5 1.2 1.1 1.3l2.6 0.4c0.5 0.1 1 0.5 1.1 1 0.2 0.7 0.5 1.5 0.9 2.1 0.2 0.5 0.2 1-0.1 1.5L30.7 90c-0.4 0.5-0.3 1.2 0.1 1.7l1.2 1.2 1.2 1.2c0.4 0.5 1.2 0.5 1.7 0.1l2.1-1.5c0.4-0.3 1-0.3 1.5-0.1 0.7 0.4 1.4 0.7 2.1 0.9 0.5 0.2 0.9 0.6 1 1.1l0.4 2.6c0.1 0.6 0.7 1.1 1.3 1.1l1.7 0 1.7 0c0.7 0 1.2-0.5 1.3-1.1l0.4-2.6c0.1-0.5 0.5-1 1-1.1 0.7-0.2 1.4-0.5 2-0.8 0.5-0.2 1-0.2 1.5 0.1l2.1 1.5c0.5 0.4 1.2 0.3 1.7-0.1l1.2-1.2 1.2-1.2c0.5-0.4 0.5-1.2 0.1-1.7L58 88.1c-0.3-0.4-0.3-1-0.1-1.5 0.4-0.7 0.7-1.4 0.9-2.1 0.2-0.5 0.6-0.9 1.1-1l2.6-0.4c0.6-0.1 1.1-0.7 1.1-1.3l0-1.7 0-1.7c0-0.7-0.5-1.2-1.1-1.3L60 76.6c-0.5-0.1-1-0.5-1.1-1-0.2-0.7-0.5-1.5-0.9-2.1-0.2-0.5-0.2-1 0.1-1.5l1.5-2.1c0.4-0.5 0.3-1.2-0.1-1.7L58.4 67l-1.2-1.2c-0.4-0.5-1.2-0.5-1.7-0.1l-2.1 1.5c-0.4 0.3-1 0.3-1.5 0.1-0.7-0.3-1.4-0.7-2.1-0.9-0.5-0.2-0.9-0.6-1-1.1l-0.4-2.6c-0.1-0.6-0.7-1.1-1.3-1.1l-1.7 0-1.7 0c-0.7 0-1.2 0.5-1.3 1.1l-0.4 2.5c-0.1 0.5-0.5 1-1 1.1-0.8 0.2-1.5 0.5-2.2 0.9-0.5 0.2-1.1 0.2-1.5-0.1l-2.1-1.5c-0.5-0.4-1.2-0.3-1.7 0.1l-1.2 1.2L31 68c-0.5 0.4-0.5 1.2-0.1 1.7l1.5 2.1c0.3 0.4 0.3 1 0.1 1.5C32 74 31.7 74.7 31.5 75.4zM45.1 72.3c4.2 0 7.6 3.3 7.7 7.5 0 4.2-3.3 7.6-7.5 7.7-4.2 0-7.6-3.3-7.7-7.5C37.5 75.8 40.9 72.4 45.1 72.3zM79 57.1c-0.4-0.3-0.9-0.6-1.3-0.8-0.3-0.2-0.5-0.5-0.6-0.9l0-1.8c0-0.4-0.3-0.8-0.8-0.9l-1.2-0.2-1.2-0.2c-0.4-0.1-0.9 0.2-1 0.6l-0.5 1.7c-0.1 0.4-0.4 0.6-0.8 0.7-0.5 0.1-1.1 0.2-1.6 0.4-0.3 0.1-0.7 0-1-0.2l-1.3-1.2c-0.3-0.3-0.8-0.3-1.2-0.1l-0.9 0.7-0.9 0.7c-0.4 0.3-0.5 0.7-0.3 1.1l0.8 1.6c0.2 0.3 0.1 0.7-0.1 1-0.3 0.4-0.6 0.9-0.8 1.4-0.2 0.3-0.5 0.5-0.9 0.6l-1.8 0c-0.4 0-0.8 0.3-0.9 0.8l-0.2 1.2-0.2 1.2c-0.1 0.4 0.2 0.9 0.6 1l1.7 0.5c0.3 0.1 0.6 0.4 0.7 0.8 0.1 0.5 0.2 1 0.4 1.5 0.1 0.3 0 0.7-0.2 1l-1.2 1.3c-0.3 0.3-0.3 0.8-0.1 1.2l0.7 0.9 0.7 0.9c0.3 0.4 0.7 0.5 1.1 0.3l1.6-0.8c0.3-0.2 0.7-0.1 1 0.1 0.4 0.3 0.9 0.6 1.4 0.8 0.3 0.2 0.5 0.5 0.6 0.9l0 1.8c0 0.4 0.3 0.8 0.8 0.9l1.2 0.2 1.2 0.2c0.4 0.1 0.9-0.2 1-0.6l0.5-1.7c0.1-0.4 0.4-0.6 0.8-0.7 0.5-0.1 1-0.2 1.5-0.4 0.3-0.1 0.7 0 1 0.2l1.3 1.2c0.3 0.3 0.8 0.3 1.2 0.1l0.9-0.7 0.9-0.7c0.4-0.3 0.5-0.7 0.3-1.1l-0.8-1.6c-0.2-0.3-0.1-0.7 0.1-1 0.3-0.4 0.6-0.9 0.8-1.3 0.2-0.3 0.5-0.5 0.9-0.6l1.8 0c0.4 0 0.8-0.3 0.9-0.8l0.2-1.2 0.2-1.2c0.1-0.4-0.2-0.9-0.6-1l-1.7-0.5c-0.4-0.1-0.6-0.4-0.7-0.8-0.1-0.5-0.2-1-0.4-1.5-0.1-0.3 0-0.7 0.2-1l1.2-1.3c0.3-0.3 0.3-0.8 0.1-1.2l-0.7-0.9-0.7-0.9c-0.3-0.4-0.7-0.5-1.1-0.3L80 57.2C79.7 57.3 79.3 57.3 79 57.1zM78.4 65.8c-0.4 2.9-3 4.9-5.9 4.5s-4.9-3-4.5-5.9c0.4-2.9 3-4.9 5.9-4.5C76.7 60.3 78.8 62.9 78.4 65.8zM25.3 16.8c-0.6 0.7-1.4 1-2.3 0.9l-4.3-0.8c-1.1-0.2-2.1 0.4-2.5 1.4l-1 2.7-1 2.7c-0.4 1 0 2.2 1 2.7l3.8 2.2c0.8 0.4 1.2 1.3 1.2 2.2-0.1 1.2 0 2.5 0.1 3.7 0.1 0.9-0.3 1.8-1 2.3l-3.6 2.5c-0.9 0.6-1.2 1.8-0.8 2.7l1.2 2.6 1.2 2.6c0.4 1 1.5 1.5 2.6 1.2l4.1-1.1c0.9-0.2 1.8 0.1 2.4 0.7 0.9 0.9 1.8 1.8 2.8 2.6 0.7 0.6 1 1.4 0.9 2.3l-0.8 4.3c-0.2 1.1 0.4 2.1 1.4 2.5l2.7 1 2.7 1c1 0.4 2.2 0 2.7-1l2.1-3.7c0.5-0.8 1.3-1.2 2.2-1.2 1.3 0.1 2.6 0 3.9-0.1 0.9-0.1 1.8 0.3 2.2 1l2.5 3.6c0.6 0.9 1.8 1.2 2.7 0.8l2.6-1.2 2.6-1.2c1-0.4 1.5-1.5 1.2-2.6l-1.2-4.1c-0.2-0.9 0-1.8 0.7-2.4 0.9-0.9 1.8-1.8 2.6-2.8 0.6-0.7 1.4-1 2.3-0.9l4.3 0.8c1.1 0.2 2.1-0.4 2.5-1.4l1-2.7 1-2.7c0.4-1 0-2.2-1-2.7l-3.7-2.1c-0.8-0.5-1.2-1.3-1.2-2.2 0.1-1.3 0-2.7-0.1-4-0.1-0.9 0.3-1.8 1-2.3l3.6-2.4c0.9-0.6 1.2-1.8 0.8-2.7l-1.2-2.6-1.2-2.6c-0.4-1-1.5-1.5-2.6-1.2l-4.2 1.1c-0.9 0.2-1.8 0-2.4-0.7-0.9-1-1.8-1.8-2.8-2.6-0.7-0.6-1-1.4-0.9-2.3l0.8-4.3c0.2-1-0.4-2.1-1.3-2.5l-2.7-1-2.7-1c-1-0.4-2.2 0-2.7 1l-2.2 3.8c-0.4 0.8-1.3 1.2-2.2 1.2-1.3-0.1-2.6 0-3.9 0.1-0.9 0.1-1.8-0.3-2.3-1l-2.4-3.6C36.1 2.3 34.9 2 34 2.4l-2.6 1.2-2.6 1.2c-1 0.4-1.5 1.5-1.2 2.6l1.1 4.2c0.2 0.9 0 1.8-0.7 2.4C27 14.9 26.1 15.8 25.3 16.8zM44.2 13.4c10.2 0 18.4 8.2 18.4 18.4 0 4.6-1.7 8.8-4.5 12-0.4-1.9-1.3-3.1-3.3-3.9-3.5-1.3-5.6-2.7-5.6-2.7l-2.7 8.6L46.1 47l-1.2-3.4c2.8-3.9-0.2-4.1-0.7-4.1v0c0 0 0 0 0 0 0 0 0 0 0 0 0 0 0 0 0 0s0 0 0 0v0c-0.5 0-3.5 0.2-0.7 4.1L42.2 47l-0.4-1.2-2.7-8.6c0 0-2.1 1.4-5.6 2.7-2 0.7-2.9 1.9-3.3 3.8-2.7-3.2-4.4-7.4-4.4-11.9C25.8 21.6 34 13.4 44.2 13.4zM36.7 29.3c-0.7-2.3 0-2.7 0.6-2.6-0.4-1.2-0.4-2.4-0.2-3.6 0.3-1.3 1-2.4 1.8-3.2 0.5-0.5 1.1-1 1.7-1.4 0.5-0.3 1-0.6 1.6-0.8l0 0c0.5-0.2 1-0.3 1.5-0.3 1.6-0.1 2.9 0.3 3.7 0.8 1.3 0.7 1.8 1.7 1.8 1.7s3.3 0.2 1.9 7.2c0.4 0.2 0.8 0.8 0.2 2.6-0.6 2.2-1.2 2.4-1.6 2.1-0.4 2.4-1.7 5.5-5.9 5.7-4.3-0.3-5.6-3.5-6-6C37.6 31.5 37.2 31.1 36.7 29.3z" fill="#1deb69" data-fill-palette-color="accent"

></path>
</svg>
