<svg xmlns="http://www.w3.org/2000/svg" version="1.1" xmlns:xlink="http://www.w3.org/1999/xlink" xmlns:svgjs="http://svgjs.dev/svgjs" width="1500" height="1500" viewBox="0 0 1500 1500"><rect width="1500" height="1500" fill="#ffffff"></rect><g transform="matrix(0.6666666666666666,0,0,0.6666666666666666,249.39393939393938,637.5371582049914)"><svg viewBox="0 0 396 89" data-background-color="#ffffff" preserveAspectRatio="xMidYMid meet" height="337" width="1500" xmlns="http://www.w3.org/2000/svg" xmlns:xlink="http://www.w3.org/1999/xlink"><g id="tight-bounds" transform="matrix(1,0,0,1,0.2400000000000091,0.05130379713247635)"><svg viewBox="0 0 395.52 88.89739240573503" height="88.89739240573503" width="395.52"><g><svg viewBox="0 0 488.7274186578037 109.84676657530524" height="88.89739240573503" width="395.52"><g transform="matrix(1,0,0,1,93.20741865780373,15.181427218439445)"><svg viewBox="0 0 395.52 79.48391213842635" height="79.48391213842635" width="395.52"><g id="textblocktransform"><svg viewBox="0 0 395.52 79.48391213842635" height="79.48391213842635" width="395.52" id="textblock"><g><svg viewBox="0 0 395.52 48.33297234011414" height="48.33297234011414" width="395.52"><g transform="matrix(1,0,0,1,0,0)"><svg width="395.52" viewBox="2.25 -31 341.62 41.75" height="48.33297234011414" data-palette-color="#096a2e"><path d="M35.75-0.95L35.7 0 27.45 0 27.4-1.05 29.55-1.3 30-8.85 30-13.3Q30-15.2 28.98-16.23 27.95-17.25 25.65-17.25 23.35-17.25 21.05-15.45L21.05-15.45 21.05-8.85 21.45-1.3 21.5-1.3 23.65-1.05 23.6 0 14.65 0 14.6-1.05 16.75-1.3 17.2-8.85 17.2-13.3Q17.2-15.2 16.18-16.23 15.15-17.25 12.95-17.25 10.75-17.25 8.5-15.45L8.5-15.45 8.25-11.05 8.25-8.85 8.65-1.3 8.7-1.3 10.85-1.05 10.8 0 2.5 0 2.45-0.95 3.95-1.3 4.4-8.85 4.4-11.05 3.95-18.6 2.25-18.95 2.3-19.9 8.75-20.45 8.6-18.15Q11.9-20.7 15.15-20.7 18.4-20.7 20.1-17.85L20.1-17.85Q24.05-20.7 27.8-20.7L27.8-20.7Q30.6-20.7 32.23-18.78 33.85-16.85 33.85-13.5L33.85-13.5 33.85-8.85 34.25-1.3 34.3-1.3 35.75-0.95ZM47.85 0L40.25 0 40.2-0.95 41.7-1.3 42.15-8.85 42.15-11.05 41.7-18.6 40-18.95 40.05-19.9 46.5-20.45 46-11.05 46-8.85 46.4-1.3 47.9-0.95 47.85 0ZM47.45-27.65L47.45-27.65Q46.7-25.35 44.1-24.3L44.1-24.3Q41.7-25.1 40.75-27.65L40.75-27.65Q41.75-30.2 44.1-31L44.1-31Q45.5-30.4 46.27-29.65 47.05-28.9 47.45-27.65ZM61.65 0.75Q57.3 0.75 54.72-2.18 52.15-5.1 52.15-9.98 52.15-14.85 55.15-17.78 58.15-20.7 63.15-20.7L63.15-20.7Q65.3-20.7 67.75-20.2L67.75-20.2 68.15-21.3 68.95-21.3 68.59-14.4 67.75-14.4 67.59-16.3Q64.8-17.85 62.32-17.85 59.85-17.85 58.15-15.68 56.45-13.5 56.45-9.98 56.45-6.45 58.02-4.25 59.6-2.05 62.4-2.05 65.2-2.05 67.84-3.95L67.84-3.95 68.7-5.95 69.59-5.75 68.05 1.3 67.05 1.3 67.09 0Q64.45 0.75 61.65 0.75L61.65 0.75ZM73.34-18.95L73.39-19.9 79.84-20.45 79.64-17.15Q80.94-19.25 81.99-19.98 83.04-20.7 84.54-20.7 86.04-20.7 87.49-20.45L87.49-20.45 87.24-14.65 86.39-14.65 86.04-16.8Q84.59-17.3 83.62-17.3 82.64-17.3 81.79-16.8 80.94-16.3 79.54-14.75L79.54-14.75 79.34-11.05 79.34-8.85 79.74-1.3 82.74-0.95 82.69 0 73.59 0 73.54-0.95 75.04-1.3 75.49-8.85 75.49-11.05 75.04-18.6 73.34-18.95ZM100.09-2.05L100.09-2.05Q105.39-2.05 105.39-9.4L105.39-9.4Q105.39-17.9 99.24-17.9L99.24-17.9Q96.49-17.9 95.27-16.18 94.04-14.45 94.04-10.3L94.04-10.3Q94.04-2.05 100.09-2.05ZM99.59 0.75Q94.94 0.75 92.34-1.98 89.74-4.7 89.74-9.68 89.74-14.65 92.49-17.68 95.24-20.7 99.92-20.7 104.59-20.7 107.17-18.03 109.74-15.35 109.74-10.33 109.74-5.3 106.99-2.27 104.24 0.75 99.59 0.75ZM147.49-0.95L147.44 0 139.19 0 139.14-1.05 141.29-1.3 141.74-8.85 141.74-13.3Q141.74-15.2 140.71-16.23 139.69-17.25 137.39-17.25 135.09-17.25 132.79-15.45L132.79-15.45 132.79-8.85 133.19-1.3 133.24-1.3 135.39-1.05 135.34 0 126.39 0 126.34-1.05 128.49-1.3 128.94-8.85 128.94-13.3Q128.94-15.2 127.91-16.23 126.89-17.25 124.69-17.25 122.49-17.25 120.24-15.45L120.24-15.45 119.99-11.05 119.99-8.85 120.39-1.3 120.44-1.3 122.59-1.05 122.54 0 114.24 0 114.19-0.95 115.69-1.3 116.14-8.85 116.14-11.05 115.69-18.6 113.99-18.95 114.04-19.9 120.49-20.45 120.34-18.15Q123.64-20.7 126.89-20.7 130.14-20.7 131.84-17.85L131.84-17.85Q135.79-20.7 139.54-20.7L139.54-20.7Q142.34-20.7 143.96-18.78 145.59-16.85 145.59-13.5L145.59-13.5 145.59-8.85 145.99-1.3 146.04-1.3 147.49-0.95ZM152.69-21.25L153.49-21.25 153.94-20.15Q157.14-20.7 159.39-20.7L159.39-20.7Q163.64-20.7 165.91-18.93 168.19-17.15 168.19-13.8L168.19-13.8 168.09-8.85 168.54-1.35 170.24-1 170.19-0.05 163.99 0.4 163.99-1.65Q161.04 0.75 157.99 0.75 154.94 0.75 153.21-0.9 151.49-2.55 151.49-5.45 151.49-8.35 153.99-9.78 156.49-11.2 164.34-12.5L164.34-12.5 164.34-13.8Q164.34-15.75 163.21-16.82 162.09-17.9 159.89-17.9 157.69-17.9 154.24-16.45L154.24-16.45 154.04-14.6 153.19-14.55 152.69-21.25ZM164.24-9.65Q159.09-8.7 157.41-7.93 155.74-7.15 155.74-5.6 155.74-4.05 156.79-3.05 157.84-2.05 159.81-2.05 161.79-2.05 163.99-4.25L163.99-4.25 164.24-9.65ZM183.08 0L174.73 0 174.68-0.95 176.18-1.3 176.63-8.85 176.63-11.05 176.18-18.6 174.48-18.95 174.53-19.9 180.98-20.45 180.83-18.15Q184.23-20.7 187.38-20.7 190.53-20.7 192.16-18.8 193.78-16.9 193.78-13.5L193.78-13.5 193.78-8.85 194.18-1.3 195.68-0.95 195.63 0 187.38 0 187.33-1.05 189.48-1.3 189.93-8.85 189.93-13.3Q189.93-15.2 188.86-16.23 187.78-17.25 185.51-17.25 183.23-17.25 180.73-15.45L180.73-15.45 180.48-11.05 180.48-8.85 180.88-1.3 183.13-1.05 183.08 0ZM200.88-21.25L201.68-21.25 202.13-20.15Q205.33-20.7 207.58-20.7L207.58-20.7Q211.83-20.7 214.11-18.93 216.38-17.15 216.38-13.8L216.38-13.8 216.28-8.85 216.73-1.35 218.43-1 218.38-0.05 212.18 0.4 212.18-1.65Q209.23 0.75 206.18 0.75 203.13 0.75 201.41-0.9 199.68-2.55 199.68-5.45 199.68-8.35 202.18-9.78 204.68-11.2 212.53-12.5L212.53-12.5 212.53-13.8Q212.53-15.75 211.41-16.82 210.28-17.9 208.08-17.9 205.88-17.9 202.43-16.45L202.43-16.45 202.23-14.6 201.38-14.55 200.88-21.25ZM212.43-9.65Q207.28-8.7 205.61-7.93 203.93-7.15 203.93-5.6 203.93-4.05 204.98-3.05 206.03-2.05 208-2.05 209.98-2.05 212.18-4.25L212.18-4.25 212.43-9.65ZM232.68-20.7L232.68-20.7Q235.73-20.7 237.93-19.45L237.93-19.45 244.08-20.95 243.78-17.45 240.03-17.45Q241.08-15.8 241.08-13.55L241.08-13.55Q241.08-9.9 238.65-7.83 236.23-5.75 231.98-5.75L231.98-5.75Q229.88-5.75 228.13-6.3L228.13-6.3 226.63-3.75Q228.28-2.75 233.33-2.75 238.38-2.75 240.3-1.5 242.23-0.25 242.23 2.45L242.23 2.45Q242.23 6.25 239 8.5 235.78 10.75 230.33 10.75L230.33 10.75Q221.93 10.75 221.93 5.8L221.93 5.8Q221.93 2.7 225.48 0.25L225.48 0.25Q223.58-0.45 223.58-2.3 223.58-4.15 226.13-7.35L226.13-7.35Q223.63-9.25 223.63-12.9 223.63-16.55 226.05-18.63 228.48-20.7 232.68-20.7ZM230.78 8.05Q234.13 8.05 236.28 6.85 238.43 5.65 238.43 3.95 238.43 2.25 236.98 1.58 235.53 0.9 232.33 0.9 229.13 0.9 227.53 0.7L227.53 0.7Q225.68 2.6 225.68 4.85L225.68 4.85Q225.68 8.05 230.78 8.05L230.78 8.05ZM232.33-18.05L232.33-18.05Q227.78-18.05 227.78-13.23 227.78-8.4 232.35-8.4 236.93-8.4 236.93-13.3L236.93-13.3Q236.93-15.75 235.8-16.9 234.68-18.05 232.33-18.05ZM280.83-0.95L280.78 0 272.53 0 272.48-1.05 274.63-1.3 275.08-8.85 275.08-13.3Q275.08-15.2 274.05-16.23 273.03-17.25 270.73-17.25 268.43-17.25 266.13-15.45L266.13-15.45 266.13-8.85 266.53-1.3 266.58-1.3 268.73-1.05 268.68 0 259.73 0 259.68-1.05 261.83-1.3 262.28-8.85 262.28-13.3Q262.28-15.2 261.25-16.23 260.23-17.25 258.03-17.25 255.83-17.25 253.58-15.45L253.58-15.45 253.33-11.05 253.33-8.85 253.73-1.3 253.78-1.3 255.93-1.05 255.88 0 247.58 0 247.53-0.95 249.03-1.3 249.48-8.85 249.48-11.05 249.03-18.6 247.33-18.95 247.38-19.9 253.83-20.45 253.68-18.15Q256.98-20.7 260.23-20.7 263.48-20.7 265.18-17.85L265.18-17.85Q269.13-20.7 272.88-20.7L272.88-20.7Q275.68-20.7 277.3-18.78 278.93-16.85 278.93-13.5L278.93-13.5 278.93-8.85 279.33-1.3 279.38-1.3 280.83-0.95ZM293.97 0.75Q289.97 0.75 287.4-2 284.82-4.75 284.82-9.63 284.82-14.5 287.47-17.6 290.12-20.7 294.5-20.7 298.87-20.7 300.97-18.7 303.07-16.7 303.07-12.45L303.07-12.45Q303.07-11.25 302.92-9.9L302.92-9.9 289.12-9.9Q289.12-6.35 290.67-4.2 292.22-2.05 295.12-2.05 298.02-2.05 300.92-4.25L300.92-4.25 301.27-6.3 302.12-6.25 302.47 0.7 301.67 0.7 301.22-0.45Q297.97 0.75 293.97 0.75ZM289.22-12.5L289.22-12.5 298.92-12.55Q298.92-15.4 297.82-16.65 296.72-17.9 294.37-17.9L294.37-17.9Q289.72-17.9 289.22-12.5ZM315.92 0L307.57 0 307.52-0.95 309.02-1.3 309.47-8.85 309.47-11.05 309.02-18.6 307.32-18.95 307.37-19.9 313.82-20.45 313.67-18.15Q317.07-20.7 320.22-20.7 323.37-20.7 325-18.8 326.62-16.9 326.62-13.5L326.62-13.5 326.62-8.85 327.02-1.3 328.52-0.95 328.47 0 320.22 0 320.17-1.05 322.32-1.3 322.77-8.85 322.77-13.3Q322.77-15.2 321.7-16.23 320.62-17.25 318.35-17.25 316.07-17.25 313.57-15.45L313.57-15.45 313.32-11.05 313.32-8.85 313.72-1.3 315.97-1.05 315.92 0ZM334.17-5.4L334.17-5.4 334.37-17.5 331.77-17.4 331.77-19.05 334.37-19.95 337.12-24.95 337.92-24.95 338.22-19.95 343.27-19.95 343.02-17.8 338.22-17.6 338.22-6.35Q338.22-3.15 338.87-2.23 339.52-1.3 341.82-1.3L341.82-1.3 343.77-1.3 343.87-0.45Q342.02 0.75 339.27 0.75 336.52 0.75 335.34-0.65 334.17-2.05 334.17-5.4Z" opacity="1" transform="matrix(1,0,0,1,0,0)" fill="#000000" class="wordmark-text-0" data-fill-palette-color="primary" id="text-0"></path></svg></g></svg></g><g transform="matrix(1,0,0,1,0,59.743227118278924)"><svg viewBox="0 0 232.209792 19.740685020147417" height="19.740685020147417" width="232.209792"><g transform="matrix(1,0,0,1,0,0)"><svg width="232.209792" viewBox="4.45 -33.5 508.69 43.25" height="19.740685020147417" data-palette-color="#3c3c3c"><path d="M8.5-14.25L13.35-14.25Q17.35-14.25 19.55-15.93 21.75-17.6 21.75-21L21.75-21Q21.75-24.4 19.63-25.98 17.5-27.55 13.55-27.55L13.55-27.55Q12.2-27.55 10.88-27.43 9.55-27.3 8.5-27.1L8.5-27.1 8.5-14.25ZM13.6-10.85L4.45-10.85 4.45-28.2Q4.45-29 4.88-29.43 5.3-29.85 6.1-30.1L6.1-30.1Q7.55-30.55 9.63-30.75 11.7-30.95 13.65-30.95L13.65-30.95Q20-30.95 22.93-28.28 25.85-25.6 25.85-21.05L25.85-21.05Q25.85-17.95 24.53-15.65 23.2-13.35 20.5-12.1 17.8-10.85 13.6-10.85L13.6-10.85ZM4.45-12.8L8.55-12.8 8.55-0.1Q8.25 0 7.75 0.13 7.25 0.25 6.65 0.25L6.65 0.25Q5.55 0.25 5-0.2 4.45-0.65 4.45-1.6L4.45-1.6 4.45-12.8ZM36.1-18.8L36.1-10.9 32.1-10.9 32.1-18.5Q32.1-19.65 32.52-20.33 32.95-21 33.95-21.65L33.95-21.65Q35.25-22.5 37.5-23.13 39.75-23.75 42.5-23.75L42.5-23.75Q46.5-23.75 46.5-21.75L46.5-21.75Q46.5-21.25 46.35-20.83 46.2-20.4 45.95-20.1L45.95-20.1Q45.45-20.2 44.65-20.3 43.85-20.4 43.05-20.4L43.05-20.4Q40.75-20.4 39-19.93 37.25-19.45 36.1-18.8L36.1-18.8ZM32.1-13.2L36.1-12.6 36.1-0.1Q35.85 0 35.35 0.13 34.85 0.25 34.25 0.25L34.25 0.25Q33.2 0.25 32.65-0.18 32.1-0.6 32.1-1.55L32.1-1.55 32.1-13.2ZM72.65-11.55L72.65-11.55Q72.65-7.85 71.25-5.1 69.85-2.35 67.3-0.85 64.75 0.65 61.3 0.65L61.3 0.65Q57.85 0.65 55.27-0.85 52.7-2.35 51.3-5.1 49.9-7.85 49.9-11.55L49.9-11.55Q49.9-15.3 51.32-18.03 52.75-20.75 55.32-22.25 57.9-23.75 61.3-23.75L61.3-23.75Q64.7-23.75 67.25-22.25 69.8-20.75 71.22-18.03 72.65-15.3 72.65-11.55ZM61.3-20.45L61.3-20.45Q57.95-20.45 55.97-18.07 54-15.7 54-11.55L54-11.55Q54-7.35 55.92-5 57.85-2.65 61.3-2.65L61.3-2.65Q64.7-2.65 66.62-5.03 68.55-7.4 68.55-11.55L68.55-11.55Q68.55-15.7 66.62-18.07 64.7-20.45 61.3-20.45ZM94.59-3.95L94.59-20.75 98.59-20.8 98.59-3.8Q98.59-2.85 98.17-2.27 97.74-1.7 96.84-1.15L96.84-1.15Q95.84-0.5 93.99 0.08 92.14 0.65 89.74 0.65L89.74 0.65Q86.14 0.65 83.39-0.6 80.64-1.85 79.09-4.53 77.54-7.2 77.54-11.45L77.54-11.45Q77.54-15.8 79.07-18.5 80.59-21.2 83.19-22.48 85.79-23.75 88.89-23.75L88.89-23.75Q90.84-23.75 92.59-23.2 94.34-22.65 95.34-21.85L95.34-21.85 95.34-18.15Q94.39-19.1 92.87-19.78 91.34-20.45 89.29-20.45L89.29-20.45Q87.24-20.45 85.49-19.58 83.74-18.7 82.69-16.7 81.64-14.7 81.64-11.35L81.64-11.35Q81.64-6.8 83.84-4.73 86.04-2.65 89.69-2.65L89.69-2.65Q91.44-2.65 92.57-3.03 93.69-3.4 94.59-3.95L94.59-3.95ZM98.59-19.8L94.59-19.75 94.59-32.4Q94.84-32.5 95.37-32.63 95.89-32.75 96.44-32.75L96.44-32.75Q97.54-32.75 98.07-32.33 98.59-31.9 98.59-30.95L98.59-30.95 98.59-19.8ZM106.19-8.45L106.19-13 110.19-13 110.19-8.65Q110.19-5.45 111.89-4.05 113.59-2.65 116.59-2.65L116.59-2.65Q118.59-2.65 119.99-3.08 121.39-3.5 122.19-3.95L122.19-3.95 122.19-13 126.19-13 126.19-4.1Q126.19-3.05 125.92-2.43 125.64-1.8 124.59-1.2L124.59-1.2Q123.49-0.55 121.44 0.05 119.39 0.65 116.54 0.65L116.54 0.65Q113.24 0.65 110.92-0.33 108.59-1.3 107.39-3.33 106.19-5.35 106.19-8.45L106.19-8.45ZM126.19-10.4L122.19-10.4 122.19-23Q122.44-23.1 122.97-23.23 123.49-23.35 124.04-23.35L124.04-23.35Q125.14-23.35 125.67-22.93 126.19-22.5 126.19-21.5L126.19-21.5 126.19-10.4ZM110.19-10.4L106.19-10.4 106.19-23Q106.44-23.1 106.97-23.23 107.49-23.35 108.09-23.35L108.09-23.35Q109.14-23.35 109.67-22.93 110.19-22.5 110.19-21.5L110.19-21.5 110.19-10.4ZM144.39-20.4L144.39-20.4Q140.99-20.4 138.74-18.1 136.49-15.8 136.49-11.5L136.49-11.5Q136.49-7.25 138.66-4.95 140.84-2.65 144.39-2.65L144.39-2.65Q146.49-2.65 147.89-3.23 149.29-3.8 150.39-4.55L150.39-4.55Q150.94-4.25 151.29-3.8 151.64-3.35 151.64-2.7L151.64-2.7Q151.64-1.3 149.56-0.33 147.49 0.65 144.39 0.65L144.39 0.65Q140.94 0.65 138.21-0.68 135.49-2 133.94-4.7 132.39-7.4 132.39-11.5L132.39-11.5Q132.39-15.55 133.99-18.28 135.59-21 138.31-22.38 141.04-23.75 144.29-23.75L144.29-23.75Q147.39-23.75 149.41-22.7 151.44-21.65 151.44-20.3L151.44-20.3Q151.44-19.7 151.09-19.25 150.74-18.8 150.19-18.55L150.19-18.55Q149.09-19.3 147.76-19.85 146.44-20.4 144.39-20.4ZM157.64-13.2L161.64-13.2 161.64-6.3Q161.64-4.3 162.79-3.48 163.94-2.65 165.94-2.65L165.94-2.65Q166.79-2.65 167.84-2.95 168.89-3.25 169.59-3.65L169.59-3.65Q169.89-3.35 170.14-2.9 170.39-2.45 170.39-1.85L170.39-1.85Q170.39-0.75 169.09-0.05 167.79 0.65 165.49 0.65L165.49 0.65Q161.99 0.65 159.81-0.9 157.64-2.45 157.64-6.05L157.64-6.05 157.64-13.2ZM159.69-19.3L159.69-22.6 169.84-22.6Q169.99-22.4 170.14-21.95 170.29-21.5 170.29-21L170.29-21Q170.29-20.2 169.89-19.75 169.49-19.3 168.79-19.3L168.79-19.3 159.69-19.3ZM161.64-11.7L157.64-11.7 157.64-29.8Q157.89-29.9 158.41-30.03 158.94-30.15 159.54-30.15L159.54-30.15Q160.59-30.15 161.11-29.73 161.64-29.3 161.64-28.35L161.64-28.35 161.64-11.7ZM175.83-30.4L175.83-30.4Q175.83-31.45 176.58-32.18 177.33-32.9 178.43-32.9L178.43-32.9Q179.58-32.9 180.28-32.18 180.98-31.45 180.98-30.4L180.98-30.4Q180.98-29.35 180.28-28.63 179.58-27.9 178.43-27.9L178.43-27.9Q177.33-27.9 176.58-28.63 175.83-29.35 175.83-30.4ZM176.43-13.2L180.43-13.2 180.43-0.1Q180.18 0 179.68 0.13 179.18 0.25 178.58 0.25L178.58 0.25Q177.53 0.25 176.98-0.18 176.43-0.6 176.43-1.55L176.43-1.55 176.43-13.2ZM180.43-11.25L176.43-11.25 176.43-23Q176.68-23.1 177.21-23.23 177.73-23.35 178.33-23.35L178.33-23.35Q179.38-23.35 179.91-22.93 180.43-22.5 180.43-21.5L180.43-21.5 180.43-11.25ZM205.53-23.55L205.53-23.55Q206.38-23.55 206.91-23.1 207.43-22.65 207.43-21.8L207.43-21.8Q207.43-21.15 206.88-19.35 206.33-17.55 205.43-15.05 204.53-12.55 203.46-9.83 202.38-7.1 201.26-4.58 200.13-2.05 199.18-0.2L199.18-0.2Q198.93 0 198.31 0.15 197.68 0.3 196.98 0.3L196.98 0.3Q196.13 0.3 195.48 0.03 194.83-0.25 194.58-0.75L194.58-0.75Q194.03-1.75 193.16-3.68 192.28-5.6 191.28-8.05 190.28-10.5 189.26-13.13 188.23-15.75 187.38-18.18 186.53-20.6 185.98-22.45L185.98-22.45Q186.33-22.95 186.93-23.25 187.53-23.55 188.13-23.55L188.13-23.55Q189.03-23.55 189.53-23.1 190.03-22.65 190.38-21.6L190.38-21.6 193.48-12.65Q193.88-11.5 194.53-9.8 195.18-8.1 195.83-6.4 196.48-4.7 196.88-3.55L196.88-3.55 197.08-3.55Q199.08-8.6 200.83-13.53 202.58-18.45 203.83-23.15L203.83-23.15Q204.48-23.55 205.53-23.55ZM212.63-30.4L212.63-30.4Q212.63-31.45 213.38-32.18 214.13-32.9 215.23-32.9L215.23-32.9Q216.38-32.9 217.08-32.18 217.78-31.45 217.78-30.4L217.78-30.4Q217.78-29.35 217.08-28.63 216.38-27.9 215.23-27.9L215.23-27.9Q214.13-27.9 213.38-28.63 212.63-29.35 212.63-30.4ZM213.23-13.2L217.23-13.2 217.23-0.1Q216.98 0 216.48 0.13 215.98 0.25 215.38 0.25L215.38 0.25Q214.33 0.25 213.78-0.18 213.23-0.6 213.23-1.55L213.23-1.55 213.23-13.2ZM217.23-11.25L213.23-11.25 213.23-23Q213.48-23.1 214-23.23 214.53-23.35 215.13-23.35L215.13-23.35Q216.18-23.35 216.7-22.93 217.23-22.5 217.23-21.5L217.23-21.5 217.23-11.25ZM225.08-13.2L229.08-13.2 229.08-6.3Q229.08-4.3 230.23-3.48 231.38-2.65 233.38-2.65L233.38-2.65Q234.23-2.65 235.28-2.95 236.33-3.25 237.03-3.65L237.03-3.65Q237.33-3.35 237.58-2.9 237.83-2.45 237.83-1.85L237.83-1.85Q237.83-0.75 236.53-0.05 235.23 0.65 232.93 0.65L232.93 0.65Q229.43 0.65 227.25-0.9 225.08-2.45 225.08-6.05L225.08-6.05 225.08-13.2ZM227.13-19.3L227.13-22.6 237.28-22.6Q237.43-22.4 237.58-21.95 237.73-21.5 237.73-21L237.73-21Q237.73-20.2 237.33-19.75 236.93-19.3 236.23-19.3L236.23-19.3 227.13-19.3ZM229.08-11.7L225.08-11.7 225.08-29.8Q225.33-29.9 225.85-30.03 226.38-30.15 226.98-30.15L226.98-30.15Q228.03-30.15 228.55-29.73 229.08-29.3 229.08-28.35L229.08-28.35 229.08-11.7ZM248.32-5.15L248.32-5.15Q247.47-6.75 246.27-9.47 245.07-12.2 243.8-15.58 242.52-18.95 241.37-22.45L241.37-22.45Q241.72-22.95 242.3-23.25 242.87-23.55 243.52-23.55L243.52-23.55Q244.37-23.55 244.92-23.1 245.47-22.65 245.82-21.6L245.82-21.6Q247.32-17.4 248.97-13.25 250.62-9.1 252.62-4.65L252.62-4.65 252.82-4.65Q253.87-6.75 255.02-9.9 256.17-13.05 257.22-16.55 258.27-20.05 258.97-23.15L258.97-23.15Q259.32-23.3 259.75-23.43 260.17-23.55 260.67-23.55L260.67-23.55Q261.52-23.55 262.07-23.13 262.62-22.7 262.62-21.85L262.62-21.85Q262.62-21.05 262.17-19.18 261.72-17.3 260.95-14.83 260.17-12.35 259.15-9.58 258.12-6.8 256.95-4.13 255.77-1.45 254.57 0.7L254.57 0.7Q252.27 4.95 250.37 7.23 248.47 9.5 246.87 9.5L246.87 9.5Q245.72 9.5 245.1 8.9 244.47 8.3 244.32 7.5L244.32 7.5Q245.42 6.55 246.8 4.98 248.17 3.4 249.45 1.58 250.72-0.25 251.52-1.9L251.52-1.9Q250.67-2.15 249.95-2.8 249.22-3.45 248.32-5.15ZM277.72-30.4L277.72-30.4Q277.72-31.45 278.47-32.18 279.22-32.9 280.32-32.9L280.32-32.9Q281.47-32.9 282.17-32.18 282.87-31.45 282.87-30.4L282.87-30.4Q282.87-29.35 282.17-28.63 281.47-27.9 280.32-27.9L280.32-27.9Q279.22-27.9 278.47-28.63 277.72-29.35 277.72-30.4ZM278.32-13.2L282.32-13.2 282.32-0.1Q282.07 0 281.57 0.13 281.07 0.25 280.47 0.25L280.47 0.25Q279.42 0.25 278.87-0.18 278.32-0.6 278.32-1.55L278.32-1.55 278.32-13.2ZM282.32-11.25L278.32-11.25 278.32-23Q278.57-23.1 279.09-23.23 279.62-23.35 280.22-23.35L280.22-23.35Q281.27-23.35 281.79-22.93 282.32-22.5 282.32-21.5L282.32-21.5 282.32-11.25ZM306.42-6.15L306.42-6.15Q306.42-2.95 304.07-1.15 301.72 0.65 297.27 0.65L297.27 0.65Q293.47 0.65 291.07-0.53 288.67-1.7 288.67-3.1L288.67-3.1Q288.67-3.7 288.99-4.28 289.32-4.85 289.97-5.2L289.97-5.2Q291.32-4.25 293.12-3.45 294.92-2.65 297.22-2.65L297.22-2.65Q302.42-2.65 302.42-6.15L302.42-6.15Q302.42-7.6 301.54-8.53 300.67-9.45 298.97-9.85L298.97-9.85 294.82-10.95Q291.77-11.7 290.37-13.28 288.97-14.85 288.97-17.2L288.97-17.2Q288.97-19.85 291.12-21.8 293.27-23.75 297.67-23.75L297.67-23.75Q300.02-23.75 301.77-23.28 303.52-22.8 304.49-22.03 305.47-21.25 305.47-20.35L305.47-20.35Q305.47-19.7 305.14-19.2 304.82-18.7 304.27-18.45L304.27-18.45Q303.67-18.85 302.74-19.33 301.82-19.8 300.57-20.13 299.32-20.45 297.82-20.45L297.82-20.45Q295.62-20.45 294.27-19.6 292.92-18.75 292.92-17.2L292.92-17.2Q292.92-16.1 293.69-15.28 294.47-14.45 296.17-14.05L296.17-14.05 299.62-13.2Q303.02-12.4 304.72-10.68 306.42-8.95 306.42-6.15ZM342.51-9.95L338.51-9.95 338.51-14.55Q338.51-17.55 336.84-19 335.16-20.45 332.51-20.45L332.51-20.45Q330.56-20.45 328.89-19.7 327.21-18.95 326.06-17.9L326.06-17.9 325.31-21.15Q326.51-22 328.49-22.88 330.46-23.75 333.06-23.75L333.06-23.75Q337.21-23.75 339.86-21.5 342.51-19.25 342.51-14.65L342.51-14.65 342.51-9.95ZM322.56-13.2L326.56-13.2 326.56-0.1Q326.31 0 325.81 0.13 325.31 0.25 324.71 0.25L324.71 0.25Q323.66 0.25 323.11-0.18 322.56-0.6 322.56-1.55L322.56-1.55 322.56-13.2ZM338.51-13.15L342.51-13.1 342.51-0.1Q342.26 0 341.74 0.13 341.21 0.25 340.66 0.25L340.66 0.25Q339.56 0.25 339.04-0.18 338.51-0.6 338.51-1.55L338.51-1.55 338.51-13.15ZM326.56-11.25L322.56-11.25 322.56-32.4Q322.81-32.5 323.34-32.63 323.86-32.75 324.46-32.75L324.46-32.75Q325.51-32.75 326.04-32.33 326.56-31.9 326.56-30.95L326.56-30.95 326.56-11.25ZM358.26-2.6L358.26-2.6Q360.36-2.6 361.73-3.03 363.11-3.45 363.71-3.85L363.71-3.85 363.71-11.1 357.51-10.45Q354.91-10.25 353.66-9.3 352.41-8.35 352.41-6.55L352.41-6.55Q352.41-4.7 353.88-3.65 355.36-2.6 358.26-2.6ZM358.21-23.75L358.21-23.75Q362.56-23.75 365.11-21.8 367.66-19.85 367.66-15.65L367.66-15.65 367.66-3.8Q367.66-2.7 367.23-2.13 366.81-1.55 365.96-1.05L365.96-1.05Q364.76-0.4 362.76 0.15 360.76 0.7 358.26 0.7L358.26 0.7Q353.56 0.7 350.98-1.15 348.41-3 348.41-6.5L348.41-6.5Q348.41-9.75 350.58-11.48 352.76-13.2 356.61-13.55L356.61-13.55 363.71-14.25 363.71-15.65Q363.71-18.15 362.21-19.3 360.71-20.45 358.16-20.45L358.16-20.45Q356.11-20.45 354.23-19.85 352.36-19.25 350.91-18.5L350.91-18.5Q350.51-18.85 350.18-19.33 349.86-19.8 349.86-20.3L349.86-20.3Q349.86-21.6 351.31-22.3L351.31-22.3Q352.66-23 354.43-23.38 356.21-23.75 358.21-23.75ZM375.36-13.2L379.36-12.6 379.36-0.1Q379.11 0 378.61 0.13 378.11 0.25 377.51 0.25L377.51 0.25Q376.46 0.25 375.91-0.18 375.36-0.6 375.36-1.55L375.36-1.55 375.36-13.2ZM379.36-10.7L375.36-11.25 375.36-32.4Q375.61-32.5 376.13-32.63 376.66-32.75 377.21-32.75L377.21-32.75Q378.31-32.75 378.83-32.33 379.36-31.9 379.36-30.95L379.36-30.95 379.36-10.7ZM390.6-18.55L390.6-21.8 401.2-21.8Q401.35-21.6 401.5-21.18 401.65-20.75 401.65-20.2L401.65-20.2Q401.65-19.4 401.25-18.98 400.85-18.55 400.1-18.55L400.1-18.55 390.6-18.55ZM391.3-24.95L391.3-19.1 387.35-19.1 387.35-25.15Q387.35-28.1 388.43-29.93 389.5-31.75 391.53-32.63 393.55-33.5 396.35-33.5L396.35-33.5Q399.2-33.5 400.83-32.75 402.45-32 402.45-30.9L402.45-30.9Q402.45-30.35 402.23-29.9 402-29.45 401.6-29.05L401.6-29.05Q400.7-29.55 399.35-29.88 398-30.2 396.75-30.2L396.75-30.2Q393.7-30.2 392.5-28.95 391.3-27.7 391.3-24.95L391.3-24.95ZM387.35-21.3L391.35-21.3 391.35-0.1Q391.1 0 390.6 0.13 390.1 0.25 389.5 0.25L389.5 0.25Q388.45 0.25 387.9-0.18 387.35-0.6 387.35-1.55L387.35-1.55 387.35-21.3ZM425.45-2.6L425.45-2.6Q427.55-2.6 428.92-3.03 430.3-3.45 430.9-3.85L430.9-3.85 430.9-11.1 424.7-10.45Q422.1-10.25 420.85-9.3 419.6-8.35 419.6-6.55L419.6-6.55Q419.6-4.7 421.07-3.65 422.55-2.6 425.45-2.6ZM425.4-23.75L425.4-23.75Q429.75-23.75 432.3-21.8 434.85-19.85 434.85-15.65L434.85-15.65 434.85-3.8Q434.85-2.7 434.42-2.13 434-1.55 433.15-1.05L433.15-1.05Q431.95-0.4 429.95 0.15 427.95 0.7 425.45 0.7L425.45 0.7Q420.75 0.7 418.17-1.15 415.6-3 415.6-6.5L415.6-6.5Q415.6-9.75 417.77-11.48 419.95-13.2 423.8-13.55L423.8-13.55 430.9-14.25 430.9-15.65Q430.9-18.15 429.4-19.3 427.9-20.45 425.35-20.45L425.35-20.45Q423.3-20.45 421.42-19.85 419.55-19.25 418.1-18.5L418.1-18.5Q417.7-18.85 417.37-19.33 417.05-19.8 417.05-20.3L417.05-20.3Q417.05-21.6 418.5-22.3L418.5-22.3Q419.85-23 421.62-23.38 423.4-23.75 425.4-23.75ZM448.69 7.3L448.69 7.3Q449.89 6.75 450.74 6.15 451.59 5.55 452.07 4.48 452.54 3.4 452.54 1.5L452.54 1.5 452.54-15.15 456.54-15.15 456.54 2.25Q456.54 5.15 455.54 6.78 454.54 8.4 453.24 9.08 451.94 9.75 450.99 9.75L450.99 9.75Q449.74 9.75 449.27 9.03 448.79 8.3 448.69 7.3ZM451.94-30.4L451.94-30.4Q451.94-31.45 452.69-32.18 453.44-32.9 454.54-32.9L454.54-32.9Q455.69-32.9 456.39-32.18 457.09-31.45 457.09-30.4L457.09-30.4Q457.09-29.35 456.39-28.63 455.69-27.9 454.54-27.9L454.54-27.9Q453.44-27.9 452.69-28.63 451.94-29.35 451.94-30.4ZM456.54-10.7L452.54-11.25 452.54-23Q452.79-23.1 453.32-23.23 453.84-23.35 454.44-23.35L454.44-23.35Q455.49-23.35 456.02-22.93 456.54-22.5 456.54-21.5L456.54-21.5 456.54-10.7ZM485.74-11.55L485.74-11.55Q485.74-7.85 484.34-5.1 482.94-2.35 480.39-0.85 477.84 0.65 474.39 0.65L474.39 0.65Q470.94 0.65 468.37-0.85 465.79-2.35 464.39-5.1 462.99-7.85 462.99-11.55L462.99-11.55Q462.99-15.3 464.42-18.03 465.84-20.75 468.42-22.25 470.99-23.75 474.39-23.75L474.39-23.75Q477.79-23.75 480.34-22.25 482.89-20.75 484.32-18.03 485.74-15.3 485.74-11.55ZM474.39-20.45L474.39-20.45Q471.04-20.45 469.07-18.07 467.09-15.7 467.09-11.55L467.09-11.55Q467.09-7.35 469.02-5 470.94-2.65 474.39-2.65L474.39-2.65Q477.79-2.65 479.72-5.03 481.64-7.4 481.64-11.55L481.64-11.55Q481.64-15.7 479.72-18.07 477.79-20.45 474.39-20.45ZM502.24-23.75L502.24-23.75Q505.34-23.75 507.81-22.43 510.29-21.1 511.71-18.4 513.14-15.7 513.14-11.55L513.14-11.55Q513.14-7.35 511.66-4.65 510.19-1.95 507.59-0.65 504.99 0.65 501.54 0.65L501.54 0.65Q499.09 0.65 497.11 0.05 495.14-0.55 493.89-1.25L493.89-1.25Q492.84-1.95 492.44-2.55 492.04-3.15 492.04-4.2L492.04-4.2 492.04-20.85 496.04-20.85 496.04-4.2Q496.79-3.65 498.24-3.15 499.69-2.65 501.54-2.65L501.54-2.65Q504.94-2.65 507.01-4.8 509.09-6.95 509.09-11.55L509.09-11.55Q509.09-16.2 506.99-18.32 504.89-20.45 501.64-20.45L501.64-20.45Q499.64-20.45 498.09-19.68 496.54-18.9 495.54-17.9L495.54-17.9 494.79-21.15Q495.89-22 497.74-22.88 499.59-23.75 502.24-23.75ZM496.04-20.05L492.04-20.05 492.04-32.4Q492.29-32.5 492.81-32.63 493.34-32.75 493.94-32.75L493.94-32.75Q494.99-32.75 495.51-32.33 496.04-31.9 496.04-30.95L496.04-30.95 496.04-20.05Z" opacity="1" transform="matrix(1,0,0,1,0,0)" fill="#000000" class="slogan-text-1" data-fill-palette-color="secondary" id="text-1"></path></svg></g></svg></g></svg></g></svg></g><g><svg viewBox="0 0 81.79716387963894 109.84676657530524" height="109.84676657530524" width="81.79716387963894"><g><svg xmlns="http://www.w3.org/2000/svg" xmlns:xlink="http://www.w3.org/1999/xlink" version="1.1" x="0" y="0" viewBox="14.046718634065927 1.646718634065901 71.97266284551257 96.65328136593409" enable-background="new 0 0 100 100" xml:space="preserve" height="109.84676657530524" width="81.79716387963894" class="icon-icon-0" data-fill-palette-color="accent" id="icon-0"><path d="M31.5 75.4c-0.2 0.5-0.6 0.9-1.1 1l-2.6 0.4c-0.6 0.1-1.1 0.6-1.1 1.3l0 1.7 0 1.7c0 0.7 0.5 1.2 1.1 1.3l2.6 0.4c0.5 0.1 1 0.5 1.1 1 0.2 0.7 0.5 1.5 0.9 2.1 0.2 0.5 0.2 1-0.1 1.5L30.7 90c-0.4 0.5-0.3 1.2 0.1 1.7l1.2 1.2 1.2 1.2c0.4 0.5 1.2 0.5 1.7 0.1l2.1-1.5c0.4-0.3 1-0.3 1.5-0.1 0.7 0.4 1.4 0.7 2.1 0.9 0.5 0.2 0.9 0.6 1 1.1l0.4 2.6c0.1 0.6 0.7 1.1 1.3 1.1l1.7 0 1.7 0c0.7 0 1.2-0.5 1.3-1.1l0.4-2.6c0.1-0.5 0.5-1 1-1.1 0.7-0.2 1.4-0.5 2-0.8 0.5-0.2 1-0.2 1.5 0.1l2.1 1.5c0.5 0.4 1.2 0.3 1.7-0.1l1.2-1.2 1.2-1.2c0.5-0.4 0.5-1.2 0.1-1.7L58 88.1c-0.3-0.4-0.3-1-0.1-1.5 0.4-0.7 0.7-1.4 0.9-2.1 0.2-0.5 0.6-0.9 1.1-1l2.6-0.4c0.6-0.1 1.1-0.7 1.1-1.3l0-1.7 0-1.7c0-0.7-0.5-1.2-1.1-1.3L60 76.6c-0.5-0.1-1-0.5-1.1-1-0.2-0.7-0.5-1.5-0.9-2.1-0.2-0.5-0.2-1 0.1-1.5l1.5-2.1c0.4-0.5 0.3-1.2-0.1-1.7L58.4 67l-1.2-1.2c-0.4-0.5-1.2-0.5-1.7-0.1l-2.1 1.5c-0.4 0.3-1 0.3-1.5 0.1-0.7-0.3-1.4-0.7-2.1-0.9-0.5-0.2-0.9-0.6-1-1.1l-0.4-2.6c-0.1-0.6-0.7-1.1-1.3-1.1l-1.7 0-1.7 0c-0.7 0-1.2 0.5-1.3 1.1l-0.4 2.5c-0.1 0.5-0.5 1-1 1.1-0.8 0.2-1.5 0.5-2.2 0.9-0.5 0.2-1.1 0.2-1.5-0.1l-2.1-1.5c-0.5-0.4-1.2-0.3-1.7 0.1l-1.2 1.2L31 68c-0.5 0.4-0.5 1.2-0.1 1.7l1.5 2.1c0.3 0.4 0.3 1 0.1 1.5C32 74 31.7 74.7 31.5 75.4zM45.1 72.3c4.2 0 7.6 3.3 7.7 7.5 0 4.2-3.3 7.6-7.5 7.7-4.2 0-7.6-3.3-7.7-7.5C37.5 75.8 40.9 72.4 45.1 72.3zM79 57.1c-0.4-0.3-0.9-0.6-1.3-0.8-0.3-0.2-0.5-0.5-0.6-0.9l0-1.8c0-0.4-0.3-0.8-0.8-0.9l-1.2-0.2-1.2-0.2c-0.4-0.1-0.9 0.2-1 0.6l-0.5 1.7c-0.1 0.4-0.4 0.6-0.8 0.7-0.5 0.1-1.1 0.2-1.6 0.4-0.3 0.1-0.7 0-1-0.2l-1.3-1.2c-0.3-0.3-0.8-0.3-1.2-0.1l-0.9 0.7-0.9 0.7c-0.4 0.3-0.5 0.7-0.3 1.1l0.8 1.6c0.2 0.3 0.1 0.7-0.1 1-0.3 0.4-0.6 0.9-0.8 1.4-0.2 0.3-0.5 0.5-0.9 0.6l-1.8 0c-0.4 0-0.8 0.3-0.9 0.8l-0.2 1.2-0.2 1.2c-0.1 0.4 0.2 0.9 0.6 1l1.7 0.5c0.3 0.1 0.6 0.4 0.7 0.8 0.1 0.5 0.2 1 0.4 1.5 0.1 0.3 0 0.7-0.2 1l-1.2 1.3c-0.3 0.3-0.3 0.8-0.1 1.2l0.7 0.9 0.7 0.9c0.3 0.4 0.7 0.5 1.1 0.3l1.6-0.8c0.3-0.2 0.7-0.1 1 0.1 0.4 0.3 0.9 0.6 1.4 0.8 0.3 0.2 0.5 0.5 0.6 0.9l0 1.8c0 0.4 0.3 0.8 0.8 0.9l1.2 0.2 1.2 0.2c0.4 0.1 0.9-0.2 1-0.6l0.5-1.7c0.1-0.4 0.4-0.6 0.8-0.7 0.5-0.1 1-0.2 1.5-0.4 0.3-0.1 0.7 0 1 0.2l1.3 1.2c0.3 0.3 0.8 0.3 1.2 0.1l0.9-0.7 0.9-0.7c0.4-0.3 0.5-0.7 0.3-1.1l-0.8-1.6c-0.2-0.3-0.1-0.7 0.1-1 0.3-0.4 0.6-0.9 0.8-1.3 0.2-0.3 0.5-0.5 0.9-0.6l1.8 0c0.4 0 0.8-0.3 0.9-0.8l0.2-1.2 0.2-1.2c0.1-0.4-0.2-0.9-0.6-1l-1.7-0.5c-0.4-0.1-0.6-0.4-0.7-0.8-0.1-0.5-0.2-1-0.4-1.5-0.1-0.3 0-0.7 0.2-1l1.2-1.3c0.3-0.3 0.3-0.8 0.1-1.2l-0.7-0.9-0.7-0.9c-0.3-0.4-0.7-0.5-1.1-0.3L80 57.2C79.7 57.3 79.3 57.3 79 57.1zM78.4 65.8c-0.4 2.9-3 4.9-5.9 4.5s-4.9-3-4.5-5.9c0.4-2.9 3-4.9 5.9-4.5C76.7 60.3 78.8 62.9 78.4 65.8zM25.3 16.8c-0.6 0.7-1.4 1-2.3 0.9l-4.3-0.8c-1.1-0.2-2.1 0.4-2.5 1.4l-1 2.7-1 2.7c-0.4 1 0 2.2 1 2.7l3.8 2.2c0.8 0.4 1.2 1.3 1.2 2.2-0.1 1.2 0 2.5 0.1 3.7 0.1 0.9-0.3 1.8-1 2.3l-3.6 2.5c-0.9 0.6-1.2 1.8-0.8 2.7l1.2 2.6 1.2 2.6c0.4 1 1.5 1.5 2.6 1.2l4.1-1.1c0.9-0.2 1.8 0.1 2.4 0.7 0.9 0.9 1.8 1.8 2.8 2.6 0.7 0.6 1 1.4 0.9 2.3l-0.8 4.3c-0.2 1.1 0.4 2.1 1.4 2.5l2.7 1 2.7 1c1 0.4 2.2 0 2.7-1l2.1-3.7c0.5-0.8 1.3-1.2 2.2-1.2 1.3 0.1 2.6 0 3.9-0.1 0.9-0.1 1.8 0.3 2.2 1l2.5 3.6c0.6 0.9 1.8 1.2 2.7 0.8l2.6-1.2 2.6-1.2c1-0.4 1.5-1.5 1.2-2.6l-1.2-4.1c-0.2-0.9 0-1.8 0.7-2.4 0.9-0.9 1.8-1.8 2.6-2.8 0.6-0.7 1.4-1 2.3-0.9l4.3 0.8c1.1 0.2 2.1-0.4 2.5-1.4l1-2.7 1-2.7c0.4-1 0-2.2-1-2.7l-3.7-2.1c-0.8-0.5-1.2-1.3-1.2-2.2 0.1-1.3 0-2.7-0.1-4-0.1-0.9 0.3-1.8 1-2.3l3.6-2.4c0.9-0.6 1.2-1.8 0.8-2.7l-1.2-2.6-1.2-2.6c-0.4-1-1.5-1.5-2.6-1.2l-4.2 1.1c-0.9 0.2-1.8 0-2.4-0.7-0.9-1-1.8-1.8-2.8-2.6-0.7-0.6-1-1.4-0.9-2.3l0.8-4.3c0.2-1-0.4-2.1-1.3-2.5l-2.7-1-2.7-1c-1-0.4-2.2 0-2.7 1l-2.2 3.8c-0.4 0.8-1.3 1.2-2.2 1.2-1.3-0.1-2.6 0-3.9 0.1-0.9 0.1-1.8-0.3-2.3-1l-2.4-3.6C36.1 2.3 34.9 2 34 2.4l-2.6 1.2-2.6 1.2c-1 0.4-1.5 1.5-1.2 2.6l1.1 4.2c0.2 0.9 0 1.8-0.7 2.4C27 14.9 26.1 15.8 25.3 16.8zM44.2 13.4c10.2 0 18.4 8.2 18.4 18.4 0 4.6-1.7 8.8-4.5 12-0.4-1.9-1.3-3.1-3.3-3.9-3.5-1.3-5.6-2.7-5.6-2.7l-2.7 8.6L46.1 47l-1.2-3.4c2.8-3.9-0.2-4.1-0.7-4.1v0c0 0 0 0 0 0 0 0 0 0 0 0 0 0 0 0 0 0s0 0 0 0v0c-0.5 0-3.5 0.2-0.7 4.1L42.2 47l-0.4-1.2-2.7-8.6c0 0-2.1 1.4-5.6 2.7-2 0.7-2.9 1.9-3.3 3.8-2.7-3.2-4.4-7.4-4.4-11.9C25.8 21.6 34 13.4 44.2 13.4zM36.7 29.3c-0.7-2.3 0-2.7 0.6-2.6-0.4-1.2-0.4-2.4-0.2-3.6 0.3-1.3 1-2.4 1.8-3.2 0.5-0.5 1.1-1 1.7-1.4 0.5-0.3 1-0.6 1.6-0.8l0 0c0.5-0.2 1-0.3 1.5-0.3 1.6-0.1 2.9 0.3 3.7 0.8 1.3 0.7 1.8 1.7 1.8 1.7s3.3 0.2 1.9 7.2c0.4 0.2 0.8 0.8 0.2 2.6-0.6 2.2-1.2 2.4-1.6 2.1-0.4 2.4-1.7 5.5-5.9 5.7-4.3-0.3-5.6-3.5-6-6C37.6 31.5 37.2 31.1 36.7 29.3z" fill="#000000" data-fill-palette-color="accent"></path></svg></g></svg></g></svg></g><defs></defs></svg><rect width="395.52" height="88.89739240573503" fill="none" stroke="none" visibility="hidden"></rect></g></svg></g></svg>