<?xml version="1.0" standalone="no"?>
<!DOCTYPE svg PUBLIC "-//W3C//DTD SVG 20010904//EN"
 "http://www.w3.org/TR/2001/REC-SVG-20010904/DTD/svg10.dtd">
<svg version="1.0" xmlns="http://www.w3.org/2000/svg"
 width="16.000000pt" height="16.000000pt" viewBox="0 0 512.000000 512.000000"
 preserveAspectRatio="xMidYMid meet">

<g transform="translate(0.000000,512.000000) scale(0.100000,-0.100000)"
fill="#000000" stroke="none">
<path d="M750 5063 c-14 -2 -56 -14 -95 -25 -277 -81 -487 -291 -577 -578
l-23 -75 0 -1825 0 -1825 24 -75 c91 -289 293 -491 581 -582 l75 -23 1825 0
1825 0 75 23 c288 91 490 293 581 582 l24 75 0 1825 0 1825 -23 75 c-57 180
-166 339 -303 441 -87 63 -157 99 -269 138 l-75 26 -1810 1 c-995 1 -1821 -1
-1835 -3z m1883 -534 c60 -16 141 -101 161 -168 9 -30 16 -62 16 -71 0 -10 26
-33 61 -55 128 -79 279 -265 382 -470 125 -251 224 -632 257 -995 15 -171 12
-533 -5 -690 -26 -228 -93 -560 -125 -620 -16 -31 -43 -40 -71 -27 -33 17 -34
44 -5 145 175 602 140 1427 -84 1993 -87 219 -184 374 -316 498 -106 101 -113
103 -160 51 -91 -101 -232 -116 -341 -37 -63 45 -95 103 -101 186 -3 54 0 76
18 119 51 118 182 178 313 141z m-703 -829 c102 -17 120 -27 120 -66 0 -53
-19 -57 -167 -38 -159 20 -414 15 -513 -11 -103 -27 -219 -86 -281 -143 -76
-69 -115 -145 -130 -254 -21 -143 11 -287 103 -472 45 -89 45 -121 1 -132 -40
-10 -54 4 -104 103 -167 333 -149 639 47 823 106 98 239 162 399 189 33 6 71
13 85 15 44 8 372 -2 440 -14z m1797 -10 c223 -46 384 -154 471 -318 136 -255
37 -642 -255 -1004 -66 -82 -81 -91 -114 -75 -44 22 -37 60 25 136 125 155
233 352 272 496 14 50 19 103 19 190 0 114 -2 123 -32 188 -55 115 -158 202
-301 254 -71 26 -227 53 -306 53 -76 0 -106 37 -70 89 16 22 20 23 108 16 50
-4 133 -15 183 -25z m-663 -36 c20 -19 21 -58 2 -73 -8 -7 -72 -27 -144 -46
-838 -221 -1678 -866 -1913 -1470 -31 -79 -58 -200 -59 -262 0 -30 3 -33 29
-33 109 0 219 -96 239 -207 19 -114 -33 -223 -133 -276 -56 -30 -174 -30 -230
0 -71 38 -119 104 -133 180 -16 95 20 193 91 247 33 25 34 28 35 105 6 281
212 648 545 967 186 178 338 297 557 435 290 182 655 343 950 419 135 34 144
35 164 14z m-424 -1044 c88 -45 123 -169 71 -253 -29 -47 -97 -88 -149 -89
-167 -2 -256 186 -144 306 55 58 149 73 222 36z m-1197 -392 c252 -252 551
-459 909 -632 346 -168 659 -260 981 -287 199 -17 389 7 526 67 40 18 51 27
43 36 -6 7 -14 36 -19 63 -35 200 151 356 339 285 100 -37 160 -126 160 -235
0 -182 -170 -299 -343 -235 l-61 22 -72 -31 c-140 -60 -263 -82 -460 -82 -651
0 -1495 384 -2072 945 -99 96 -114 115 -114 143 0 33 19 52 52 53 10 0 68 -51
131 -112z m390 -790 c9 -7 39 -67 67 -134 116 -277 277 -484 442 -570 246
-127 494 -28 712 284 50 70 62 82 86 82 31 0 50 -23 50 -58 0 -20 -84 -143
-154 -225 -41 -48 -115 -109 -194 -160 -128 -82 -330 -106 -464 -55 -189 71
-348 224 -482 463 -54 97 -146 304 -146 329 0 17 38 56 53 56 7 0 21 -6 30
-12z"/>
<path d="M2473 4410 c-64 -38 -88 -142 -46 -198 87 -118 256 -80 270 61 12
116 -123 199 -224 137z"/>
<path d="M902 1643 c-50 -25 -76 -68 -76 -128 0 -86 58 -145 144 -145 86 0
144 59 144 145 0 31 -7 60 -18 77 -41 63 -125 85 -194 51z"/>
<path d="M4049 1636 c-35 -24 -69 -85 -69 -123 0 -33 43 -105 74 -124 85 -52
204 1 222 98 24 126 -121 221 -227 149z"/>
</g>
</svg>
